<svg width="29" height="18" viewBox="0 0 29 18" fill="none" xmlns="http://www.w3.org/2000/svg">
<path d="M28.2453 9.16978C28.1321 9.3962 28.0189 9.62261 27.8491 9.84903C25.868 12.3396 23.5472 14.4905 20.7736 16.0754C18.9623 17.1509 16.9812 17.8302 14.8868 18C13.1321 18.1132 11.4906 17.8302 9.84908 17.2075C7.41512 16.3019 5.32078 14.8302 3.39625 13.0754C2.26418 12.0566 1.24531 10.9245 0.33965 9.73582C-0.0565761 9.22638 -0.0565761 8.83016 0.33965 8.32072C2.32078 5.77355 4.69814 3.62261 7.47173 1.9811C9.67927 0.679214 12.0566 -0.0566355 14.6604 0.0565721C16.4151 0.113176 18.1132 0.62261 19.6981 1.41506C23.0378 3.05657 25.6981 5.49053 28.0189 8.37733C28.1321 8.54714 28.1887 8.71695 28.3019 8.88676C28.2453 8.94337 28.2453 9.05657 28.2453 9.16978ZM26.151 8.99997C26.0378 8.88676 25.9812 8.77355 25.868 8.71695C25.0189 7.81129 24.1698 6.90563 23.2642 6.05657C21.5095 4.47167 19.5849 3.16978 17.3208 2.43393C15.9623 1.9811 14.5472 1.75469 13.1321 1.9245C11.3208 2.15091 9.67927 2.77355 8.09437 3.73582C6.05663 4.9811 4.24531 6.56601 2.6604 8.32072C2.49059 8.54714 2.26418 8.77355 2.09437 8.99997C2.6604 9.56601 3.16984 10.1886 3.67927 10.7547C5.49059 12.566 7.52833 14.1509 9.90569 15.2264C11.0944 15.7358 12.3396 16.0754 13.6415 16.132C15.6227 16.2453 17.4906 15.6792 19.2453 14.7736C21.2264 13.7547 22.9246 12.3962 24.4529 10.8113C25.0755 10.2453 25.5849 9.62261 26.151 8.99997Z" fill="#CEBD88"/>
<path d="M14.0254 4.00083C11.2843 3.95008 9 6.23396 9 8.97462C9 11.7153 11.1827 13.9484 13.9746 13.9992C16.7157 14.0499 19 11.766 19 9.02538C19 6.28471 16.8173 4.05158 14.0254 4.00083ZM11.6396 7.8073C11.0305 7.8073 10.5228 7.29977 10.5228 6.69074C10.5228 6.0817 11.0305 5.57417 11.6396 5.57417C12.2487 5.57417 12.7563 6.0817 12.7563 6.69074C12.7563 7.29977 12.2487 7.8073 11.6396 7.8073Z" fill="#CEBD88"/>
</svg>
