<svg width="21" height="18" viewBox="0 0 21 18" fill="none" xmlns="http://www.w3.org/2000/svg">
<path d="M0 6.72762C0.0770328 6.31678 0.128388 5.90594 0.231098 5.52078C0.74465 3.64631 1.87446 2.20837 3.51783 1.20694C6.49643 -0.61617 10.271 -0.359394 12.9929 1.8232C13.1983 1.97727 13.378 2.18269 13.5835 2.33675C13.6605 2.41379 13.7889 2.46514 13.8916 2.49082C16.5621 2.92734 18.6676 4.2369 19.8488 6.72762C20.9529 9.01293 20.7218 11.2469 19.3609 13.3781C19.2839 13.5065 19.2582 13.6092 19.3096 13.789C19.669 14.9188 20.0285 16.0486 20.388 17.1784C20.5164 17.5893 20.3367 17.9487 19.9772 18.0001C19.8231 18.0258 19.6177 17.9744 19.4893 17.9231C18.3852 17.3838 17.3067 16.8189 16.2026 16.254C16.0485 16.177 15.9458 16.177 15.7917 16.2283C12.8131 17.3068 10.0656 16.9473 7.52354 14.9958C7.36947 14.8674 7.21541 14.7647 7.08702 14.6106C6.90728 14.4052 6.70185 14.3539 6.44508 14.2768C5.85449 14.1485 5.26391 13.9687 4.67332 13.789C4.54494 13.7633 4.44223 13.7376 4.33951 13.8146C3.23538 14.3795 2.13124 14.9445 1.0271 15.4837C0.898716 15.5607 0.693295 15.5864 0.564907 15.5607C0.179743 15.5094 0 15.1499 0.128388 14.739C0.487874 13.5835 0.847361 12.4537 1.23252 11.3239C1.28388 11.1955 1.2582 11.0928 1.18117 10.9644C0.53923 10.0144 0.154066 8.98725 0.0513552 7.83176C0.0513552 7.78041 0.0256776 7.72905 0.0256776 7.6777C0 7.39524 0 7.06143 0 6.72762ZM18.796 16.2283C18.7703 16.1256 18.7703 16.0743 18.7446 16.0229C18.5136 15.3039 18.2825 14.5593 18.0514 13.8403C17.9486 13.5065 17.9743 13.2497 18.1797 12.9673C19.6947 10.9388 19.669 8.21693 18.1284 6.21407C15.6633 2.97869 10.5535 2.72192 7.72896 5.67484C5.54636 7.96015 5.54636 11.2982 7.72896 13.5835C9.65478 15.5864 12.8645 16.2283 15.4836 15.0728C15.8688 14.8931 16.2026 14.8674 16.5621 15.0985C16.6134 15.1242 16.6648 15.1499 16.7161 15.1756C17.3837 15.5094 18.077 15.8689 18.796 16.2283ZM11.786 2.41379C11.709 2.36243 11.632 2.31108 11.5292 2.25972C10.5792 1.66914 9.55207 1.33533 8.42225 1.23262C6.54779 1.07855 4.82739 1.56643 3.36377 2.77327C1.92582 3.95444 1.15549 5.4951 1.18117 7.36956C1.20685 8.55073 1.59201 9.62919 2.31098 10.5793C2.49073 10.836 2.54208 11.0671 2.43937 11.3753C2.20827 12.1199 1.97718 12.8389 1.7204 13.5835C1.69472 13.6606 1.66904 13.7376 1.64337 13.8403C2.43937 13.4295 3.2097 13.07 3.95435 12.6592C4.28816 12.4794 4.57061 12.4537 4.90442 12.6335C5.13552 12.7619 5.3923 12.8389 5.67475 12.9416C5.67475 12.8902 5.67475 12.8902 5.67475 12.8902C5.64907 12.8389 5.6234 12.7619 5.57204 12.7105C4.75036 11.0415 4.57061 9.29538 5.18688 7.52363C6.03424 5.08426 7.78031 3.56928 10.194 2.79895C10.7332 2.61921 11.2468 2.54217 11.786 2.41379Z" fill="#CEBD88"/>
<path d="M10.0143 9.60342C10.0143 10.2967 9.44939 10.8616 8.75609 10.8873C8.06279 10.8873 7.44653 10.3224 7.47221 9.60342C7.47221 8.91012 8.0628 8.34521 8.73041 8.34521C9.42371 8.34521 10.0143 8.91012 10.0143 9.60342Z" fill="#CEBD88"/>
<path d="M16.5877 8.34521C17.281 8.34521 17.8459 8.9358 17.8459 9.6291C17.8459 10.3224 17.2296 10.913 16.5363 10.8873C15.8431 10.8616 15.2781 10.271 15.3038 9.57774C15.3038 8.91012 15.8944 8.34521 16.5877 8.34521Z" fill="#CEBD88"/>
<path d="M13.9172 9.6292C13.9172 10.3225 13.3266 10.8874 12.6333 10.8874C11.94 10.8874 11.3494 10.2968 11.3751 9.57785C11.4008 8.88455 11.9913 8.31965 12.659 8.34532C13.3523 8.371 13.9428 8.93591 13.9172 9.6292Z" fill="#CEBD88"/>
</svg>
