<svg width="16" height="16" viewBox="0 0 16 16" fill="none" xmlns="http://www.w3.org/2000/svg">
<path d="M0 14.1777C0 10.4888 0 6.75549 0 3.0666C0 3.02216 0 3.02216 0.0444444 2.97771C0.222222 1.95549 1.06667 1.24438 2.13333 1.24438C2.53333 1.24438 2.97778 1.24438 3.37778 1.24438C3.42222 1.24438 3.46667 1.24438 3.55555 1.24438C3.55555 0.977711 3.55555 0.755489 3.55555 0.488823C3.55555 0.2666 3.64444 0.133267 3.82222 0.0443782C4.13333 -0.1334 4.53333 0.0888227 4.53333 0.488823C4.53333 0.755489 4.53333 0.977711 4.53333 1.24438C6.88889 1.24438 9.2 1.24438 11.5111 1.24438V1.19993C11.5111 0.977711 11.5111 0.755489 11.5111 0.577712C11.5111 0.222156 11.6889 -6.62003e-05 12 -6.62003e-05C12.3111 -6.62003e-05 12.4889 0.222156 12.4889 0.577712C12.4889 0.799934 12.4889 1.02216 12.4889 1.28882C12.9778 1.28882 13.4667 1.28882 13.9556 1.28882C14.8889 1.28882 15.6889 1.95549 15.9111 2.84438C15.9111 2.93327 15.9556 3.02216 15.9556 3.0666C15.9556 6.75549 15.9556 10.4888 15.9556 14.1777C15.9556 14.2222 15.9111 14.2222 15.9111 14.2666C15.7778 15.0222 15.3333 15.5555 14.6222 15.8666C14.4444 15.911 14.3111 15.9555 14.1333 15.9999C10 15.9999 5.86666 15.9999 1.77778 15.9999C1.73333 15.9999 1.73333 15.9555 1.68889 15.9555C0.844444 15.7777 0.311111 15.2888 0.0444444 14.4888C0.0444444 14.3999 0.0444444 14.2666 0 14.1777ZM0.977778 5.51104C0.977778 5.55549 0.977778 5.64438 0.977778 5.68882C0.977778 8.39993 0.977778 11.1555 0.977778 13.8666C0.977778 14.5777 1.42222 15.0222 2.13333 15.0222C6.04444 15.0222 9.95555 15.0222 13.8667 15.0222C14.5778 15.0222 15.0222 14.5777 15.0222 13.8666C15.0222 11.1555 15.0222 8.39993 15.0222 5.68882C15.0222 5.64438 15.0222 5.59993 15.0222 5.51104C10.3111 5.51104 5.68889 5.51104 0.977778 5.51104ZM3.51111 2.2666C3.02222 2.2666 2.53333 2.2666 2.08889 2.2666C1.51111 2.2666 1.02222 2.75549 1.02222 3.33327C1.02222 3.68882 1.02222 4.04438 1.02222 4.39993C1.02222 4.44438 1.02222 4.48882 1.02222 4.48882C5.68889 4.48882 10.3556 4.48882 15.0222 4.48882C15.0222 4.08882 15.0222 3.68882 15.0222 3.28882C15.0222 2.71104 14.5333 2.22216 13.9556 2.22216C13.5556 2.22216 13.1556 2.22216 12.8 2.22216C12.7111 2.22216 12.6222 2.22216 12.5333 2.22216C12.5333 2.39993 12.5333 2.53327 12.5333 2.6666C12.5333 2.97771 12.3111 3.19993 12.0444 3.19993C11.7333 3.19993 11.5556 2.97771 11.5556 2.6666C11.5556 2.53327 11.5556 2.35549 11.5556 2.22216C9.2 2.22216 6.88889 2.22216 4.53333 2.22216C4.53333 2.39993 4.53333 2.53327 4.53333 2.71104C4.53333 3.02216 4.31111 3.24438 4.04444 3.24438C3.77778 3.24438 3.55555 3.02216 3.55555 2.75549C3.51111 2.57771 3.51111 2.44438 3.51111 2.2666Z" fill="#CEBD88"/>
<path d="M3.77776 7.11108H4.44443C4.57776 7.11108 4.66665 7.19997 4.66665 7.33331V7.99997C4.66665 8.13331 4.57776 8.2222 4.44443 8.2222H3.77776C3.64443 8.2222 3.55554 8.13331 3.55554 7.99997V7.33331C3.55554 7.19997 3.64443 7.11108 3.77776 7.11108Z" fill="#CEBD88"/>
<path d="M3.77776 9.33325H4.44443C4.57776 9.33325 4.66665 9.42214 4.66665 9.55547V10.2221C4.66665 10.3555 4.57776 10.4444 4.44443 10.4444H3.77776C3.64443 10.4444 3.55554 10.3555 3.55554 10.2221V9.55547C3.55554 9.42214 3.64443 9.33325 3.77776 9.33325Z" fill="#CEBD88"/>
<path d="M3.77776 11.5554H4.44443C4.57776 11.5554 4.66665 11.6443 4.66665 11.7776V12.4443C4.66665 12.5776 4.57776 12.6665 4.44443 12.6665H3.77776C3.64443 12.6665 3.55554 12.5776 3.55554 12.4443V11.7776C3.55554 11.6443 3.64443 11.5554 3.77776 11.5554Z" fill="#CEBD88"/>
<path d="M6.44439 7.11108H7.11106C7.24439 7.11108 7.33328 7.19997 7.33328 7.33331V7.99997C7.33328 8.13331 7.24439 8.2222 7.11106 8.2222H6.44439C6.31106 8.2222 6.22217 8.13331 6.22217 7.99997V7.33331C6.22217 7.19997 6.31106 7.11108 6.44439 7.11108Z" fill="#CEBD88"/>
<path d="M6.44439 9.33325H7.11106C7.24439 9.33325 7.33328 9.42214 7.33328 9.55547V10.2221C7.33328 10.3555 7.24439 10.4444 7.11106 10.4444H6.44439C6.31106 10.4444 6.22217 10.3555 6.22217 10.2221V9.55547C6.22217 9.42214 6.31106 9.33325 6.44439 9.33325Z" fill="#CEBD88"/>
<path d="M6.44439 11.5554H7.11106C7.24439 11.5554 7.33328 11.6443 7.33328 11.7776V12.4443C7.33328 12.5776 7.24439 12.6665 7.11106 12.6665H6.44439C6.31106 12.6665 6.22217 12.5776 6.22217 12.4443V11.7776C6.22217 11.6443 6.31106 11.5554 6.44439 11.5554Z" fill="#CEBD88"/>
<path d="M9.11114 7.11108H9.77781C9.91114 7.11108 10 7.19997 10 7.33331V7.99997C10 8.13331 9.91114 8.2222 9.77781 8.2222H9.11114C8.9778 8.2222 8.88892 8.13331 8.88892 7.99997V7.33331C8.88892 7.19997 8.9778 7.11108 9.11114 7.11108Z" fill="#CEBD88"/>
<path d="M9.11114 9.33325H9.77781C9.91114 9.33325 10 9.42214 10 9.55547V10.2221C10 10.3555 9.91114 10.4444 9.77781 10.4444H9.11114C8.9778 10.4444 8.88892 10.3555 8.88892 10.2221V9.55547C8.88892 9.42214 8.9778 9.33325 9.11114 9.33325Z" fill="#CEBD88"/>
<path d="M11.7778 7.11108H12.4444C12.5778 7.11108 12.6667 7.19997 12.6667 7.33331V7.99997C12.6667 8.13331 12.5778 8.2222 12.4444 8.2222H11.7778C11.6444 8.2222 11.5555 8.13331 11.5555 7.99997V7.33331C11.5555 7.19997 11.6444 7.11108 11.7778 7.11108Z" fill="#CEBD88"/>
<path d="M11.7778 9.33325H12.4444C12.5778 9.33325 12.6667 9.42214 12.6667 9.55547V10.2221C12.6667 10.3555 12.5778 10.4444 12.4444 10.4444H11.7778C11.6444 10.4444 11.5555 10.3555 11.5555 10.2221V9.55547C11.5555 9.42214 11.6444 9.33325 11.7778 9.33325Z" fill="#CEBD88"/>
</svg>
