<svg width="78" height="17" viewBox="0 0 78 17" fill="none" xmlns="http://www.w3.org/2000/svg">
<g clip-path="url(#clip0_17_191)" filter="url(#filter0_d_17_191)">
<path d="M66.4001 8.19997C64.8001 8.19997 63.3 7.69997 62 6.59997C61.3 5.99997 60.7001 5.39997 60 4.79997C59.5 4.39997 59 3.99997 58.5 3.59997C57.7001 3.09997 56.8 3.09997 56.1 3.59997C55.4 3.99997 54.8 4.49997 54.2001 5.09997C52.8 6.29997 51.4001 7.69997 49.5 8.09997C47.3 8.59997 45.3 8.09997 43.5 6.59997C42.8 5.99997 42.1 5.29997 41.3 4.59997C40.9 4.29997 40.5 3.99997 40.1 3.69997C39.2 3.09997 38.2001 2.99997 37.4001 3.59997C36.6001 4.09997 36 4.79997 35.2001 5.29997C34.3001 5.99997 33.4 6.79997 32.4 7.39997C29.9 8.79997 26.8 8.29997 24.5 6.29997C23.6 5.49997 22.7001 4.59997 21.7001 3.79997C20.7001 2.99997 19.6 2.99997 18.5 3.79997C17.6 4.49997 16.8 5.29997 15.9 5.99997C13.3 8.39997 10.1 8.99997 7.40005 7.39997C6.30005 6.79997 5.40005 5.79997 4.50005 4.99997C3.90005 4.39997 3.90005 3.39997 4.50005 2.79997C5.00005 2.19997 5.80005 2.09997 6.50005 2.59997C7.00005 2.89997 7.40005 3.39997 7.90005 3.79997C9.70005 5.39997 11.4 5.49997 13.3 3.89997C14.2 3.19997 15 2.39997 16 1.69997C18.8 -0.500027 21.4 -0.400027 24.1 1.79997C25 2.49997 25.8001 3.19997 26.6 3.99997C28.3001 5.49997 30.1 5.49997 31.8 4.09997C32.7 3.29997 33.5 2.49997 34.4 1.79997C35.5 0.899973 36.7 0.299973 38.1 0.199973C39.9 -2.68891e-05 41.4 0.699973 42.8 1.89997C43.7001 2.69997 44.5 3.49997 45.5 4.29997C46.9001 5.49997 48.5 5.59997 50.1 4.49997C50.9 3.89997 51.6 3.19997 52.3 2.59997C53.6 1.39997 55 0.499973 56.7001 0.299973C58.8 -2.68966e-05 60.4001 0.999973 61.9001 2.29997C62.5 2.79997 63.1001 3.49997 63.7001 3.99997C65.5 5.59997 67.4 5.59997 69.3 3.99997C69.8 3.59997 70.3 3.09997 70.8 2.59997C71.7001 1.89997 72.6 1.89997 73.2 2.49997C73.9 3.29997 73.8 4.19997 72.9 4.99997C72.2001 5.59997 71.5 6.29997 70.7 6.89997C69.5 7.69997 68 8.19997 66.4001 8.19997Z" fill="#CEBD88"/>
</g>
<defs>
<filter id="filter0_d_17_191" x="0" y="0" width="77.6" height="16.3" filterUnits="userSpaceOnUse" color-interpolation-filters="sRGB">
<feFlood flood-opacity="0" result="BackgroundImageFix"/>
<feColorMatrix in="SourceAlpha" type="matrix" values="0 0 0 0 0 0 0 0 0 0 0 0 0 0 0 0 0 0 127 0" result="hardAlpha"/>
<feOffset dy="4"/>
<feGaussianBlur stdDeviation="2"/>
<feComposite in2="hardAlpha" operator="out"/>
<feColorMatrix type="matrix" values="0 0 0 0 0 0 0 0 0 0 0 0 0 0 0 0 0 0 0.25 0"/>
<feBlend mode="normal" in2="BackgroundImageFix" result="effect1_dropShadow_17_191"/>
<feBlend mode="normal" in="SourceGraphic" in2="effect1_dropShadow_17_191" result="shape"/>
</filter>
<clipPath id="clip0_17_191">
<rect width="69.6" height="8.3" fill="white" transform="translate(4)"/>
</clipPath>
</defs>
</svg>
